# xmcd CD database file
#
# Track frame offsets:
#	150
#	16114
#	46039
#	66436
#	101694
#	121274
#	155921
#	215655
#
# Disc length: 4139 seconds
#
# Revision: 3
# Processed by: cddbd v1.5.1PL2 Copyright (c) Steve Scherf et al.
# Submitted via: CDex 1.51
#
DISCID=6b102908
DTITLE=Carrantuohill and Goscie - "live" - Muzyczna Owczarnia 2005 - CD2
DYEAR=2005
DGENRE=Jazz
TTITLE0=Welcome to Ireland
TTITLE1=Dunmore Lasses
TTITLE2=Grobla Olbrzyma
TTITLE3=Trombas
TTITLE4=Miodowka
TTITLE5=Silver spire
TTITLE6=Final
TTITLE7="Final" (filmowy fragment koncertu)
EXTD=YEAR: 2005
EXTT0=
EXTT1=
EXTT2=
EXTT3=
EXTT4=
EXTT5=
EXTT6=
EXTT7=
PLAYORDER=
